<svg version="1.1" xmlns="http://www.w3.org/2000/svg" x="0" y="0" viewBox="0 0 200 200" xml:space="preserve">
  <circle cx="100" cy="100" r="87.5" fill="#fff"/>
  <path d="M108.5 139.8c-1.8 1.8-3.9 2.9-6.2 3.3-.7 0-1.5.1-2.2.1s-1.5 0-2.2-.1c-2.3-.4-4.4-1.5-6.2-3.3-2.4-2.3-3.5-5.1-3.5-8.4 0-3.3 1.2-6.1 3.5-8.5 2.4-2.4 5.2-3.6 8.5-3.6s6.1 1.2 8.5 3.6c2.4 2.4 3.5 5.2 3.5 8.5-.2 3.3-1.4 6.1-3.7 8.4zm-2.8-27.6H94.5C93.1 95.6 88 72.6 88 69.5c0-3.6 1.1-6.6 3.4-9 2.3-2.4 5.1-3.7 8.6-3.7s6.4 1.2 8.6 3.6c2.2 2.4 3.4 5.4 3.4 9.1 0 3.1-4.7 26.1-6.3 42.7z" fill="#2d2d2d"/>
</svg>
