<svg t="1709706790068" class="icon" viewBox="0 0 1024 1024" version="1.1" xmlns="http://www.w3.org/2000/svg" p-id="13866">
  <path d="M512 0C229.376 0 0 229.376 0 512s229.376 512 512 512 512-229.376 512-512S794.624 0 512 0zm337.92 742.4H571.904c-4.096 0-4.096 0-8.704-4.096-4.096-43.008-12.8-89.6-25.6-136.704v-8.704c4.096-12.8 12.8-21.504 16.896-34.304-8.704-4.096-16.896-8.704-21.504-12.8-8.704-8.704-16.896-8.704-25.6 0l-25.6 12.8c4.096 4.096 4.096 12.8 8.704 16.896 8.704 12.8 8.704 29.696 8.704 47.104-8.704 43.008-12.8 81.408-16.896 123.904v4.096H178.176c-4.096-21.504-4.096-38.4-4.096-59.904v-38.4c0-16.896 8.704-29.696 21.504-38.4l25.6-12.8c38.4-16.896 72.704-29.696 111.104-47.104 21.504-8.704 38.4-16.896 59.904-21.504 4.096 0 8.704-4.096 8.704-8.704 8.704-8.704 12.8-21.504 16.896-29.696 4.096-8.704 8.704-12.8 12.8-12.8h4.608c0-8.704-4.096-12.8-8.704-16.896-4.096-4.096-8.704-8.704-8.704-16.896 0-12.8-4.096-29.696-4.096-43.008 0-4.096 0-4.096-4.096-4.096-12.8-4.096-16.896-8.704-21.504-21.504-8.704-12.8-8.704-29.696-8.704-47.104v-8.704c0-4.096 0-12.8 4.096-16.896s4.096-12.8 0-21.504c-4.096-25.6-8.704-51.2-4.096-76.8 4.096-29.696 12.8-55.808 43.008-68.608 34.304-16.896 68.608-29.696 107.008-25.6 16.896 0 38.4 4.096 51.2 16.896 4.096 4.096 8.704 8.704 12.8 8.704s4.096 4.096 8.704 4.096h4.096c12.8 0 16.896 8.704 21.504 16.896 8.704 21.504 12.8 43.008 12.8 64 0 16.896-4.096 38.4-4.096 55.808 0 8.704 0 12.8 4.096 21.504 8.704 16.896 8.704 34.304 4.096 51.2 0 8.704-4.096 16.896-8.704 25.6 0 8.704-4.096 12.8-12.8 12.8-12.8 4.096-16.896 12.8-16.896 25.6v16.896c0 12.8-4.096 21.504-12.8 29.696-4.096 4.096-8.704 12.8-8.704 21.504h12.8c4.096 0 4.096 0 8.704 4.096 4.096 12.8 12.8 21.504 16.896 34.304 4.096 4.096 8.704 8.704 16.896 12.8 25.6 4.096 51.2 16.896 72.704 25.6 34.304 12.8 68.608 25.6 98.304 38.4 12.8 4.096 25.6 12.8 34.304 25.6 0 4.096 4.096 8.704 4.096 12.8V742.4z" fill="#C1C1C1" p-id="13867"/>
</svg>
